{
	"asset":{
		"generator":"Khronos glTF Blender I/O v4.0.44",
		"version":"2.0"
	},
	"scene":0,
	"scenes":[
		{
			"name":"Scene",
			"nodes":[
				1
			]
		}
	],
	"nodes":[
		{
			"mesh":0,
			"name":"Mesh_Mesh_head_geo.001_lambert2SG.001"
		},
		{
			"children":[
				0
			],
			"name":"Node_1",
			"rotation":[
				-0.70710688829422,
				0,
				0,
				0.7071066498756409
			],
			"translation":[
				29.20704460144043,
				0,
				-11.600340843200684
			]
		}
	],
	"materials":[
		{
			"name":"lambert2SG.005",
			"pbrMetallicRoughness":{
				"metallicFactor":0.5,
				"roughnessFactor":0.5
			}
		}
	],
	"meshes":[
		{
			"name":"Mesh_0.004",
			"primitives":[
				{
					"attributes":{
						"COLOR_0":0,
						"POSITION":1,
						"NORMAL":2
					},
					"indices":3,
					"material":0
				}
			]
		}
	],
	"accessors":[
		{
			"bufferView":0,
			"componentType":5123,
			"count":3252,
			"normalized":true,
			"type":"VEC4"
		},
		{
			"bufferView":1,
			"componentType":5126,
			"count":3252,
			"max":[
				2.9179999828338623,
				4,
				58.89099884033203
			],
			"min":[
				-46,
				-39,
				-1.5440000295639038
			],
			"type":"VEC3"
		},
		{
			"bufferView":2,
			"componentType":5126,
			"count":3252,
			"type":"VEC3"
		},
		{
			"bufferView":3,
			"componentType":5123,
			"count":3252,
			"type":"SCALAR"
		}
	],
	"bufferViews":[
		{
			"buffer":0,
			"byteLength":26016,
			"byteOffset":0,
			"target":34962
		},
		{
			"buffer":0,
			"byteLength":39024,
			"byteOffset":26016,
			"target":34962
		},
		{
			"buffer":0,
			"byteLength":39024,
			"byteOffset":65040,
			"target":34962
		},
		{
			"buffer":0,
			"byteLength":6504,
			"byteOffset":104064,
			"target":34963
		}
	],
	"buffers":[
		{
			"byteLength":110568,
			"uri":"3_pid_6.bin"
		}
	]
}
