{
	"asset":{
		"generator":"Khronos glTF Blender I/O v4.0.44",
		"version":"2.0"
	},
	"scene":0,
	"scenes":[
		{
			"name":"Scene",
			"nodes":[
				1
			]
		}
	],
	"nodes":[
		{
			"mesh":0,
			"name":"Mesh_Mesh_head_geo.001_lambert2SG.001",
			"translation":[
				-24.44755744934082,
				-14.104642868041992,
				0
			]
		},
		{
			"children":[
				0
			],
			"name":"Node_1",
			"rotation":[
				-0.70710688829422,
				0,
				0,
				0.7071066498756409
			]
		}
	],
	"materials":[
		{
			"name":"lambert2SG.002",
			"pbrMetallicRoughness":{
				"metallicFactor":0.5,
				"roughnessFactor":0.5
			}
		}
	],
	"meshes":[
		{
			"name":"Mesh_0.001",
			"primitives":[
				{
					"attributes":{
						"COLOR_0":0,
						"POSITION":1,
						"NORMAL":2
					},
					"indices":3,
					"material":0
				}
			]
		}
	],
	"accessors":[
		{
			"bufferView":0,
			"componentType":5123,
			"count":17484,
			"normalized":true,
			"type":"VEC4"
		},
		{
			"bufferView":1,
			"componentType":5126,
			"count":17484,
			"max":[
				50,
				31.843000411987305,
				77.38300323486328
			],
			"min":[
				0,
				-10,
				0
			],
			"type":"VEC3"
		},
		{
			"bufferView":2,
			"componentType":5126,
			"count":17484,
			"type":"VEC3"
		},
		{
			"bufferView":3,
			"componentType":5123,
			"count":17484,
			"type":"SCALAR"
		}
	],
	"bufferViews":[
		{
			"buffer":0,
			"byteLength":139872,
			"byteOffset":0,
			"target":34962
		},
		{
			"buffer":0,
			"byteLength":209808,
			"byteOffset":139872,
			"target":34962
		},
		{
			"buffer":0,
			"byteLength":209808,
			"byteOffset":349680,
			"target":34962
		},
		{
			"buffer":0,
			"byteLength":34968,
			"byteOffset":559488,
			"target":34963
		}
	],
	"buffers":[
		{
			"byteLength":594456,
			"uri":"3_pid_3.bin"
		}
	]
}
