{
	"asset":{
		"generator":"Khronos glTF Blender I/O v4.0.44",
		"version":"2.0"
	},
	"scene":0,
	"scenes":[
		{
			"name":"Scene",
			"nodes":[
				1
			]
		}
	],
	"nodes":[
		{
			"mesh":0,
			"name":"Mesh_Mesh_head_geo.001_lambert2SG.002"
		},
		{
			"children":[
				0
			],
			"name":"Node_1.001",
			"rotation":[
				-0.70710688829422,
				0,
				0,
				0.7071066498756409
			]
		}
	],
	"materials":[
		{
			"name":"lambert2SG.004",
			"pbrMetallicRoughness":{
				"metallicFactor":0.5,
				"roughnessFactor":0.5
			}
		}
	],
	"meshes":[
		{
			"name":"Mesh_0.003",
			"primitives":[
				{
					"attributes":{
						"COLOR_0":0,
						"POSITION":1,
						"NORMAL":2
					},
					"indices":3,
					"material":0
				}
			]
		}
	],
	"accessors":[
		{
			"bufferView":0,
			"componentType":5123,
			"count":11916,
			"normalized":true,
			"type":"VEC4"
		},
		{
			"bufferView":1,
			"componentType":5126,
			"count":11916,
			"max":[
				27,
				14,
				64.00199890136719
			],
			"min":[
				-28,
				-38,
				0
			],
			"type":"VEC3"
		},
		{
			"bufferView":2,
			"componentType":5126,
			"count":11916,
			"type":"VEC3"
		},
		{
			"bufferView":3,
			"componentType":5123,
			"count":11916,
			"type":"SCALAR"
		}
	],
	"bufferViews":[
		{
			"buffer":0,
			"byteLength":95328,
			"byteOffset":0,
			"target":34962
		},
		{
			"buffer":0,
			"byteLength":142992,
			"byteOffset":95328,
			"target":34962
		},
		{
			"buffer":0,
			"byteLength":142992,
			"byteOffset":238320,
			"target":34962
		},
		{
			"buffer":0,
			"byteLength":23832,
			"byteOffset":381312,
			"target":34963
		}
	],
	"buffers":[
		{
			"byteLength":405144,
			"uri":"3_pid_5.bin"
		}
	]
}
