{
	"asset":{
		"generator":"Khronos glTF Blender I/O v4.0.44",
		"version":"2.0"
	},
	"scene":0,
	"scenes":[
		{
			"name":"Scene",
			"nodes":[
				1
			]
		}
	],
	"nodes":[
		{
			"mesh":0,
			"name":"Mesh_Mesh_head_geo.001_lambert2SG.001",
			"translation":[
				6.4149322509765625,
				27.867481231689453,
				3.7442425764311338e-06
			]
		},
		{
			"children":[
				0
			],
			"name":"Node_1",
			"rotation":[
				-0.70710688829422,
				0,
				0,
				0.7071066498756409
			]
		}
	],
	"materials":[
		{
			"name":"lambert2SG.001",
			"pbrMetallicRoughness":{
				"metallicFactor":0.5,
				"roughnessFactor":0.5
			}
		}
	],
	"meshes":[
		{
			"name":"Mesh_0",
			"primitives":[
				{
					"attributes":{
						"COLOR_0":0,
						"POSITION":1,
						"NORMAL":2
					},
					"indices":3,
					"material":0
				}
			]
		}
	],
	"accessors":[
		{
			"bufferView":0,
			"componentType":5123,
			"count":20052,
			"normalized":true,
			"type":"VEC4"
		},
		{
			"bufferView":1,
			"componentType":5126,
			"count":20052,
			"max":[
				3.3440001010894775,
				-17,
				20
			],
			"min":[
				-30,
				-50,
				0
			],
			"type":"VEC3"
		},
		{
			"bufferView":2,
			"componentType":5126,
			"count":20052,
			"type":"VEC3"
		},
		{
			"bufferView":3,
			"componentType":5123,
			"count":20052,
			"type":"SCALAR"
		}
	],
	"bufferViews":[
		{
			"buffer":0,
			"byteLength":160416,
			"byteOffset":0,
			"target":34962
		},
		{
			"buffer":0,
			"byteLength":240624,
			"byteOffset":160416,
			"target":34962
		},
		{
			"buffer":0,
			"byteLength":240624,
			"byteOffset":401040,
			"target":34962
		},
		{
			"buffer":0,
			"byteLength":40104,
			"byteOffset":641664,
			"target":34963
		}
	],
	"buffers":[
		{
			"byteLength":681768,
			"uri":"3_pid_1.bin"
		}
	]
}
