{
	"asset":{
		"generator":"Khronos glTF Blender I/O v4.0.44",
		"version":"2.0"
	},
	"scene":0,
	"scenes":[
		{
			"name":"Scene",
			"nodes":[
				1
			]
		}
	],
	"nodes":[
		{
			"mesh":0,
			"name":"Mesh_Mesh_head_geo.001_lambert2SG.001",
			"translation":[
				-17.702547073364258,
				34.1767578125,
				4.591949618770741e-06
			]
		},
		{
			"children":[
				0
			],
			"name":"Node_1",
			"rotation":[
				-0.70710688829422,
				0,
				0,
				0.7071066498756409
			]
		}
	],
	"materials":[
		{
			"name":"lambert2SG.001",
			"pbrMetallicRoughness":{
				"metallicFactor":0.5,
				"roughnessFactor":0.5
			}
		}
	],
	"meshes":[
		{
			"name":"Mesh_0",
			"primitives":[
				{
					"attributes":{
						"COLOR_0":0,
						"POSITION":1,
						"NORMAL":2
					},
					"indices":3,
					"material":0
				}
			]
		}
	],
	"accessors":[
		{
			"bufferView":0,
			"componentType":5123,
			"count":27210,
			"normalized":true,
			"type":"VEC4"
		},
		{
			"bufferView":1,
			"componentType":5126,
			"count":27210,
			"max":[
				31,
				-21,
				19.812000274658203
			],
			"min":[
				5,
				-47,
				0
			],
			"type":"VEC3"
		},
		{
			"bufferView":2,
			"componentType":5126,
			"count":27210,
			"type":"VEC3"
		},
		{
			"bufferView":3,
			"componentType":5123,
			"count":27210,
			"type":"SCALAR"
		}
	],
	"bufferViews":[
		{
			"buffer":0,
			"byteLength":217680,
			"byteOffset":0,
			"target":34962
		},
		{
			"buffer":0,
			"byteLength":326520,
			"byteOffset":217680,
			"target":34962
		},
		{
			"buffer":0,
			"byteLength":326520,
			"byteOffset":544200,
			"target":34962
		},
		{
			"buffer":0,
			"byteLength":54420,
			"byteOffset":870720,
			"target":34963
		}
	],
	"buffers":[
		{
			"byteLength":925140,
			"uri":"3_pid_2.bin"
		}
	]
}
